<svg width="192" height="37" viewBox="0 0 192 37" fill="none" xmlns="http://www.w3.org/2000/svg">
<rect y="0.5" width="36" height="36" rx="8" fill="#0D9488"/>
<g clip-path="url(#clip0_289_1233)">
<path d="M16.9131 10.6437L26.676 20.3671V25.5871H22.12V22.2436L15.029 15.1813H13.556V25.5871H9V10.6437H16.9131ZM22.12 15.8295V10.6437H26.676V15.8295H22.12Z" fill="white"/>
</g>
<path d="M47.304 29.5V13.25H42.286V10.13H55.806V13.25H50.866V29.5H47.304ZM62.2657 29.812C60.879 29.812 59.6137 29.4913 58.4697 28.85C57.343 28.2087 56.4417 27.3333 55.7657 26.224C55.107 25.1147 54.7777 23.8493 54.7777 22.428C54.7777 21.0067 55.107 19.7413 55.7657 18.632C56.4417 17.5227 57.343 16.6473 58.4697 16.006C59.5963 15.3647 60.8617 15.044 62.2657 15.044C63.6523 15.044 64.909 15.3647 66.0357 16.006C67.1623 16.6473 68.055 17.5227 68.7137 18.632C69.3897 19.724 69.7277 20.9893 69.7277 22.428C69.7277 23.8493 69.3897 25.1147 68.7137 26.224C68.0377 27.3333 67.1363 28.2087 66.0097 28.85C64.883 29.4913 63.635 29.812 62.2657 29.812ZM62.2657 26.692C63.0283 26.692 63.6957 26.51 64.2677 26.146C64.857 25.782 65.3163 25.2793 65.6457 24.638C65.9923 23.9793 66.1657 23.2427 66.1657 22.428C66.1657 21.596 65.9923 20.868 65.6457 20.244C65.3163 19.6027 64.857 19.1 64.2677 18.736C63.6957 18.3547 63.0283 18.164 62.2657 18.164C61.4857 18.164 60.801 18.3547 60.2117 18.736C59.6223 19.1 59.1543 19.6027 58.8077 20.244C58.4783 20.868 58.3137 21.596 58.3137 22.428C58.3137 23.2427 58.4783 23.9793 58.8077 24.638C59.1543 25.2793 59.6223 25.782 60.2117 26.146C60.801 26.51 61.4857 26.692 62.2657 26.692ZM78.7266 29.812C77.3399 29.812 76.0746 29.4913 74.9306 28.85C73.8039 28.2087 72.9026 27.3333 72.2266 26.224C71.5679 25.1147 71.2386 23.8493 71.2386 22.428C71.2386 21.0067 71.5679 19.7413 72.2266 18.632C72.9026 17.5227 73.8039 16.6473 74.9306 16.006C76.0573 15.3647 77.3226 15.044 78.7266 15.044C80.1133 15.044 81.3699 15.3647 82.4966 16.006C83.6233 16.6473 84.5159 17.5227 85.1746 18.632C85.8506 19.724 86.1886 20.9893 86.1886 22.428C86.1886 23.8493 85.8506 25.1147 85.1746 26.224C84.4986 27.3333 83.5973 28.2087 82.4706 28.85C81.3439 29.4913 80.0959 29.812 78.7266 29.812ZM78.7266 26.692C79.4893 26.692 80.1566 26.51 80.7286 26.146C81.3179 25.782 81.7773 25.2793 82.1066 24.638C82.4533 23.9793 82.6266 23.2427 82.6266 22.428C82.6266 21.596 82.4533 20.868 82.1066 20.244C81.7773 19.6027 81.3179 19.1 80.7286 18.736C80.1566 18.3547 79.4893 18.164 78.7266 18.164C77.9466 18.164 77.2619 18.3547 76.6726 18.736C76.0833 19.1 75.6153 19.6027 75.2686 20.244C74.9393 20.868 74.7746 21.596 74.7746 22.428C74.7746 23.2427 74.9393 23.9793 75.2686 24.638C75.6153 25.2793 76.0833 25.782 76.6726 26.146C77.2619 26.51 77.9466 26.692 78.7266 26.692ZM94.4656 29.656C92.871 29.656 91.6316 29.2227 90.7476 28.356C89.881 27.472 89.4476 26.2327 89.4476 24.638V18.398H87.0036V15.356H87.2636C87.957 15.356 88.4943 15.174 88.8756 14.81C89.257 14.446 89.4476 13.9173 89.4476 13.224V12.132H92.8536V15.356H96.1036V18.398H92.8536V24.456C92.8536 24.924 92.9316 25.3227 93.0876 25.652C93.261 25.9813 93.521 26.2327 93.8676 26.406C94.2316 26.5793 94.691 26.666 95.2456 26.666C95.367 26.666 95.5056 26.6573 95.6616 26.64C95.835 26.6227 95.9996 26.6053 96.1556 26.588V29.5C95.913 29.5347 95.6356 29.5693 95.3236 29.604C95.0116 29.6387 94.7256 29.656 94.4656 29.656ZM98.2579 29.5V9.818H101.664V18.138L101.196 17.644C101.525 16.7947 102.063 16.1533 102.808 15.72C103.571 15.2693 104.455 15.044 105.46 15.044C106.5 15.044 107.419 15.2693 108.216 15.72C109.031 16.1707 109.663 16.8033 110.114 17.618C110.565 18.4153 110.79 19.3427 110.79 20.4V29.5H107.384V21.206C107.384 20.582 107.263 20.0447 107.02 19.594C106.777 19.1433 106.439 18.7967 106.006 18.554C105.59 18.294 105.096 18.164 104.524 18.164C103.969 18.164 103.475 18.294 103.042 18.554C102.609 18.7967 102.271 19.1433 102.028 19.594C101.785 20.0447 101.664 20.582 101.664 21.206V29.5H98.2579ZM120.372 29.812C119.141 29.812 117.997 29.5867 116.94 29.136C115.9 28.6853 114.999 28.0613 114.236 27.264C113.491 26.4493 112.945 25.5047 112.598 24.43L115.536 23.156C116.004 24.2653 116.68 25.1407 117.564 25.782C118.448 26.406 119.445 26.718 120.554 26.718C121.178 26.718 121.715 26.6227 122.166 26.432C122.634 26.224 122.989 25.9467 123.232 25.6C123.492 25.2533 123.622 24.8373 123.622 24.352C123.622 23.78 123.449 23.312 123.102 22.948C122.773 22.5667 122.27 22.272 121.594 22.064L117.876 20.868C116.368 20.4 115.233 19.698 114.47 18.762C113.707 17.826 113.326 16.7253 113.326 15.46C113.326 14.3507 113.595 13.3713 114.132 12.522C114.687 11.6727 115.449 11.014 116.42 10.546C117.408 10.0607 118.535 9.818 119.8 9.818C120.961 9.818 122.027 10.026 122.998 10.442C123.969 10.8407 124.801 11.404 125.494 12.132C126.205 12.8427 126.733 13.6833 127.08 14.654L124.168 15.954C123.787 14.9833 123.215 14.238 122.452 13.718C121.689 13.1807 120.805 12.912 119.8 12.912C119.211 12.912 118.691 13.016 118.24 13.224C117.789 13.4147 117.434 13.692 117.174 14.056C116.931 14.4027 116.81 14.8187 116.81 15.304C116.81 15.8413 116.983 16.318 117.33 16.734C117.677 17.1327 118.205 17.4447 118.916 17.67L122.478 18.788C124.021 19.2907 125.173 19.984 125.936 20.868C126.716 21.752 127.106 22.844 127.106 24.144C127.106 25.2533 126.82 26.2327 126.248 27.082C125.676 27.9313 124.887 28.5987 123.882 29.084C122.877 29.5693 121.707 29.812 120.372 29.812ZM136.316 29.812C134.912 29.812 133.647 29.4913 132.52 28.85C131.411 28.1913 130.535 27.3073 129.894 26.198C129.253 25.0713 128.932 23.806 128.932 22.402C128.932 20.998 129.253 19.7413 129.894 18.632C130.535 17.5227 131.411 16.6473 132.52 16.006C133.647 15.3647 134.912 15.044 136.316 15.044C137.321 15.044 138.257 15.226 139.124 15.59C139.991 15.9367 140.736 16.422 141.36 17.046C142.001 17.6527 142.461 18.3807 142.738 19.23L139.748 20.53C139.488 19.8193 139.046 19.2473 138.422 18.814C137.815 18.3807 137.113 18.164 136.316 18.164C135.571 18.164 134.903 18.346 134.314 18.71C133.742 19.074 133.291 19.5767 132.962 20.218C132.633 20.8593 132.468 21.596 132.468 22.428C132.468 23.26 132.633 23.9967 132.962 24.638C133.291 25.2793 133.742 25.782 134.314 26.146C134.903 26.51 135.571 26.692 136.316 26.692C137.131 26.692 137.841 26.4753 138.448 26.042C139.055 25.6087 139.488 25.028 139.748 24.3L142.738 25.652C142.461 26.4493 142.01 27.1687 141.386 27.81C140.762 28.434 140.017 28.928 139.15 29.292C138.283 29.6387 137.339 29.812 136.316 29.812ZM144.822 29.5V15.356H148.02V18.502L147.76 18.034C148.09 16.9767 148.601 16.24 149.294 15.824C150.005 15.408 150.854 15.2 151.842 15.2H152.674V18.216H151.452C150.482 18.216 149.702 18.5193 149.112 19.126C148.523 19.7153 148.228 20.5473 148.228 21.622V29.5H144.822ZM154.047 29.5V15.356H157.453V29.5H154.047ZM154.047 13.77V10.13H157.453V13.77H154.047ZM167.82 29.812C166.797 29.812 165.852 29.6127 164.986 29.214C164.136 28.798 163.46 28.2087 162.958 27.446L163.296 26.77V29.5H160.098V9.818H163.504V18.164L162.984 17.462C163.469 16.6993 164.128 16.11 164.96 15.694C165.792 15.2607 166.754 15.044 167.846 15.044C169.18 15.044 170.385 15.3733 171.46 16.032C172.534 16.6907 173.384 17.5747 174.008 18.684C174.649 19.7933 174.97 21.0413 174.97 22.428C174.97 23.7973 174.658 25.0453 174.034 26.172C173.41 27.2987 172.56 28.1913 171.486 28.85C170.411 29.4913 169.189 29.812 167.82 29.812ZM167.43 26.692C168.21 26.692 168.903 26.51 169.51 26.146C170.116 25.782 170.584 25.2793 170.914 24.638C171.26 23.9967 171.434 23.26 171.434 22.428C171.434 21.596 171.26 20.868 170.914 20.244C170.584 19.6027 170.116 19.1 169.51 18.736C168.903 18.3547 168.21 18.164 167.43 18.164C166.684 18.164 166.008 18.346 165.402 18.71C164.812 19.074 164.344 19.5853 163.998 20.244C163.668 20.8853 163.504 21.6133 163.504 22.428C163.504 23.26 163.668 23.9967 163.998 24.638C164.344 25.2793 164.812 25.782 165.402 26.146C166.008 26.51 166.684 26.692 167.43 26.692ZM183.774 29.812C182.318 29.812 181.044 29.4827 179.952 28.824C178.86 28.1653 178.011 27.2727 177.404 26.146C176.798 25.0193 176.494 23.7713 176.494 22.402C176.494 20.9807 176.798 19.724 177.404 18.632C178.028 17.5227 178.869 16.6473 179.926 16.006C181.001 15.3647 182.197 15.044 183.514 15.044C184.624 15.044 185.594 15.226 186.426 15.59C187.276 15.954 187.995 16.4567 188.584 17.098C189.174 17.7393 189.624 18.476 189.936 19.308C190.248 20.1227 190.404 21.0067 190.404 21.96C190.404 22.2027 190.387 22.454 190.352 22.714C190.335 22.974 190.292 23.1993 190.222 23.39H179.302V20.79H188.298L186.686 22.012C186.842 21.2147 186.799 20.504 186.556 19.88C186.331 19.256 185.95 18.762 185.412 18.398C184.892 18.034 184.26 17.852 183.514 17.852C182.804 17.852 182.171 18.034 181.616 18.398C181.062 18.7447 180.637 19.2647 180.342 19.958C180.065 20.634 179.961 21.4573 180.03 22.428C179.961 23.2947 180.074 24.066 180.368 24.742C180.68 25.4007 181.131 25.912 181.72 26.276C182.327 26.64 183.02 26.822 183.8 26.822C184.58 26.822 185.239 26.6573 185.776 26.328C186.331 25.9987 186.764 25.5567 187.076 25.002L189.832 26.354C189.555 27.03 189.122 27.628 188.532 28.148C187.943 28.668 187.241 29.0753 186.426 29.37C185.629 29.6647 184.745 29.812 183.774 29.812Z" fill="black"/>
<defs>
<clipPath id="clip0_289_1233">
<rect width="18" height="15.2308" fill="white" transform="translate(9 10.5)"/>
</clipPath>
</defs>
</svg>
